<svg width="512" height="512" viewBox="0 0 512 512" fill="none" xmlns="http://www.w3.org/2000/svg">
<path d="M372.483 161.988C374.302 136.345 359.353 112.494 335.614 103.172C311.875 93.8215 284.86 101.156 268.959 121.228L257.565 117.281L245.948 113.642L234.19 110.338C250.259 82.7077 279.233 65.2671 310.979 64.0633C342.725 62.8876 372.959 78.1446 391.015 104.515L427.24 107.063L372.483 161.988Z" fill="#4A9CA6"/>
<path d="M399.193 259.753L398.941 267.676L398.381 275.598L397.485 283.437L396.253 291.191L394.686 298.946L392.81 306.616L390.599 314.203L388.051 321.705L385.196 329.04L382.088 336.29L378.561 343.289L374.81 350.288L370.806 357.062L366.467 363.585L361.876 370.024L356.977 376.21L351.91 382.145L346.507 387.912L340.852 393.427L335.057 398.718L329.011 403.673L322.712 408.46L316.245 412.911L309.61 417.11L302.752 420.974L295.809 424.613L288.699 427.916L281.42 430.884L274.057 433.515L266.611 435.895L258.996 437.882L251.382 439.618L243.599 440.934L235.901 441.998L228.062 442.669L220.224 443.089H212.442L204.603 442.753L196.765 442.082L188.982 441.102L181.284 439.786L173.585 438.134L166.055 436.147L158.524 433.907L153.793 436.539L148.81 438.862L143.827 441.018L138.676 442.837L133.441 444.321L128.122 445.469L122.719 446.365L117.316 446.953L111.829 447.205L106.342 447.121L100.939 446.785L95.5365 446.029L90.1335 445.049L147.242 387.716C203.679 418.006 273.078 407.676 318.429 362.213C363.752 316.75 374.418 246.792 344.716 189.711L372.43 161.912L376.377 168.799L379.989 175.798L383.348 182.88L386.371 190.215L389.059 197.633L391.522 205.136L393.566 212.723L395.358 220.393L396.757 228.231L397.821 236.07L398.633 243.908L399.053 251.747L399.137 259.669L399.193 259.753Z" fill="#4A9CA6"/>
<path fill-rule="evenodd" clip-rule="evenodd" d="M215.941 375.642C280.328 375.642 332.566 322.984 332.566 258.009C332.566 254.006 332.37 250.031 331.978 246.111C330.718 233.43 327.443 221.308 322.488 210.138L221.484 310.919L160.372 249.807C154.885 244.32 154.885 235.417 160.372 229.931C165.858 224.444 174.761 224.444 180.248 229.931L221.512 271.194L307.623 185.279C294.353 168.287 276.549 155.073 256.057 147.487C255.945 147.431 255.861 147.403 255.749 147.375C254.181 146.815 252.585 146.255 250.962 145.723C250.85 145.695 250.766 145.667 250.654 145.639C212.385 132.818 171.429 125.875 128.906 125.875C114.992 125.875 101.275 126.631 87.7537 128.087C82.7147 142.42 79.9993 157.817 79.9993 173.886C79.9993 200.172 87.3058 224.696 99.9873 245.579C99.5394 249.667 99.3435 253.81 99.3435 258.009C99.3435 322.984 151.581 375.642 215.969 375.642H215.941Z" fill="#4A9CA6"/>
</svg>
